<svg xmlns="http://www.w3.org/2000/svg" xmlns:xlink="http://www.w3.org/1999/xlink" version="1.1" id="Capa_1" x="0px" y="0px" viewBox="0 0 2372 1898" style="enable-background:new 0 0 2372 1898;" xml:space="preserve">
<g>
	<path style="fill: #524613;" d="M2282.809,1272.336c-435.352-171.684-761.863-899.477-761.863-899.477H822.621   c0,0-93.055,302.684-291.762,600.527c-3.41-2.578-8.941-2.898-12.125,1.621c-23.766,33.809-46.852,68.074-71.566,101.199   c-26.637,35.699-57.918,66.16-87.883,98.855c-30.555,33.348-62.246,65.617-92.609,99.137   c-27.898,30.801-65.047,50.621-94.988,79.16c-3.59,3.418-2.781,7.801-0.172,10.609c-36.199,26.637-73.961,51.148-113.371,72.91   l-24.648,87.629h448.535h313.293h22.141h416.539h431.398l672.816-161.137L2282.809,1272.336z"/>
	<g>
		<path style="fill: #463b0d;" d="M1313.164,1358.953c-217.68-19.789-490.543-599.848-490.543-599.848    s-192.988,513.23-471.195,655.254l130.605,110.148h313.293h22.141h416.539c-29.676-17.59-57.227-37.68-82.883-59.641    L1313.164,1358.953z"/>
		<path style="fill: #3a310c;" d="M1151.121,1464.867c-97.465-83.445-166.887-194.574-215.996-303.918l0,0    c-68.727-153.027-97.648-302.539-107.813-367.738c0-0.004,0-0.012,0-0.016c-1.258-8.063-2.223-14.816-2.945-20.148    c-0.02-0.133-0.039-0.27-0.059-0.406c-0.223-1.66-0.426-3.191-0.602-4.559c-0.004-0.035-0.012-0.078-0.016-0.109    c-0.363-2.824-0.625-4.984-0.797-6.477c-0.016-0.117-0.027-0.227-0.043-0.336c-0.063-0.547-0.113-0.996-0.148-1.32    c-0.012-0.094-0.027-0.227-0.035-0.301c-0.024-0.219-0.047-0.434-0.047-0.434c-34.223,492.988-340.59,765.402-340.59,765.402    h313.293h22.141h416.539C1204.328,1506.918,1176.777,1486.828,1151.121,1464.867z"/>
		<path style="fill: #87731d;" d="M2282.809,1272.336c-435.352-171.684-761.863-899.477-761.863-899.477H822.621    c24.797,82.699,61.945,165.988,106.918,247.672c3.43-2.086,8.113-1.887,10.516,2.692    c126.926,242.047,311.168,452.125,504.176,643.516c1.934,1.918,2.527,4.113,2.266,6.172    c113.449,112.215,195.75,181.031,195.75,181.031l23.156,70.566l672.816-161.137L2282.809,1272.336z"/>
		<path style="fill: #322b0f;" d="M935.125,1160.949c-18.633,127.227-65.188,246.527-117.66,363.559h416.539    c-29.676-17.59-57.227-37.68-82.883-59.641C1053.656,1381.422,984.234,1270.293,935.125,1160.949z"/>
		<g>
			<path style="fill: #6f5e1b;" d="M1543.816,671.203c-68.875,99.109-200.508,102.527-307.703,78.539     c-9.949-2.227-14.176,13.035-4.211,15.262c114.922,25.723,252.289,19.664,325.586-85.809     C1563.328,670.785,1549.598,662.887,1543.816,671.203z"/>
			<path style="fill: #6f5e1b;" d="M1467.477,801.992c-12.742,6.266-25.234,10.563-39.543,10.789     c-10.195,0.16-10.207,15.996,0,15.832c17.148-0.273,32.273-5.449,47.539-12.949     C1484.633,811.16,1476.605,797.508,1467.477,801.992z"/>
			<path style="fill: #6f5e1b;" d="M940.055,623.223c-2.402-4.578-7.086-4.777-10.516-2.692c-3.344,2.027-5.496,6.227-3.156,10.684     c127.488,243.106,312.809,454.492,506.656,646.723c5.32,5.273,12.738,0.648,13.457-5.027c0.262-2.059-0.332-4.254-2.266-6.172     C1251.223,1075.348,1066.98,865.269,940.055,623.223z"/>
			<path style="fill: #6f5e1b;" d="M530.859,973.387c-3.41-2.578-8.941-2.898-12.125,1.621     c-23.766,33.809-46.852,68.074-71.566,101.199c-26.637,35.699-57.918,66.16-87.883,98.855     c-30.555,33.348-62.246,65.617-92.609,99.137c-27.898,30.801-65.047,50.621-94.988,79.16c-3.59,3.418-2.781,7.801-0.172,10.609     c2.766,2.984,7.566,4.199,11.367,0.578c27.785-26.473,61.414-45.641,88.875-72.539c34.254-33.551,66.137-70.543,98.723-105.746     c28.898-31.223,58.871-60.656,84.715-94.641c26.898-35.379,51.656-72.277,77.211-108.613     C535.074,979.203,533.695,975.523,530.859,973.387z"/>
			<path style="fill: #6f5e1b;" d="M2229.051,1289.5c-72.734,24.398-144.441,52.07-218.512,72.18     c-56.938,15.461-114.246,28.977-171.48,43.254c-24.633,6.148-49.457,11.414-74.25,16.922     c-22.906,5.09-47.566,5.645-69.375,14.527c-9.32,3.805-5.254,19.121,4.211,15.27c19.059-7.77,40.434-9.035,60.582-12.715     c24.18-4.406,48.832-9.824,72.582-16.063c57.285-15.051,115.066-27.91,172.266-43.32     c77.406-20.848,152.227-49.309,228.184-74.789C2242.887,1301.535,2238.758,1286.242,2229.051,1289.5z"/>
			<path style="fill: #6f5e1b;" d="M2182.566,1343.418c-12.41,4.203-25.531,10.438-38.793,10.879     c-10.188,0.332-10.219,16.164,0,15.82c14.902-0.488,29.07-6.715,43.004-11.434     C2196.391,1355.43,2192.262,1340.133,2182.566,1343.418z"/>
			<path style="fill: #6f5e1b;" d="M1760.313,1190.293c15.555-34.758,28.648-71.898,38.234-108.73     c9.703-37.277,5.91-70.832-0.414-108.191c-1.699-10.051-16.949-5.773-15.262,4.211c6.574,38.871,7.816,71.324-2.219,109.863     c-10.043,38.582-25.605,77.805-42.711,113.715c-14.484,30.406-33.859,57.504-51.594,85.949     c-17.949,28.785-36.063,57.664-61.34,80.656c-7.574,6.887,3.66,18.047,11.191,11.195c24.164-21.977,42.02-49.211,59.324-76.676     C1718.699,1265.516,1742.496,1230.145,1760.313,1190.293z"/>
			<path style="fill: #6f5e1b;" d="M1815.93,1187.711c18.91-30.953,33.477-63.93,34.547-100.676c0.305-10.219-15.531-10.192-15.824,0     c-1,33.949-14.949,64.137-32.391,92.683C1796.918,1188.457,1810.617,1196.402,1815.93,1187.711z"/>
		</g>
	</g>
</g>
</svg>